{"title":"Layer Cake 2004 DVDrip English Klam","uid":6223539,"size":1671696490,"categoryP":"video","categoryS":"movies","magnet":"?xt=urn:btih:ae31cd572a37063aedd97499d8cf6359e622561b&amp;dn=Layer+Cake+2004+DVDrip+English+Klam&amp;tr=udp%3A%2F%2Ftracker.openbittorrent.com%3A80&amp;tr=udp%3A%2F%2Fopen.demonii.com%3A1337&amp;tr=udp%3A%2F%2Ftracker.coppersurfer.tk%3A6969&amp;tr=udp%3A%2F%2Fexodus.desync.com%3A6969","seeders":1,"leechers":0,"uploader":"Klambake","files":-1,"time":1299429361,"description":"With: Daniel Craig, Colm Meany and Kenneth Cranham\n\nA successful cocaine dealer, who has earned a respected place among England's Mafia elite, plans an early retirement from the business. However, big boss Jimmy Price hands down a tough assignment: find Charlotte Ryder, the missing rich princess daughter of Jimmy's old pal Edward, a powerful construction business player and gossip papers socialite. Complicating matters are two million pounds' worth of Grade A ecstasy, a brutal neo-Nazi sect and a whole series of double crossings. The title &quot;LAYER CAKE&quot; refers to the layers or levels anyone in business goes through in rising to the top. What is revealed is a modern underworld where the rules have changed. There are no 'codes', or 'families' and respect lasts as long as a line. Not knowing who he can trust, he has to use all his 'savvy', 'telling' and skills which make him one of the best, to escape his own. The ultimate last job, a love interest called Tammy...\n\nGeneral:\n\nComplete name                    : layer Cake\\layer Cake.avi\nFormat                           : AVI\nFormat/Info                      : Audio Video Interleave\nFile size                        : 1.56 GiB\nDuration                         : 1h 41mn\nOverall bit rate                 : 2 206 Kbps\n\nVideo:\n\nFormat                           : MPEG-4 Visual\nFormat profile                   : Simple@L3\nFormat settings, BVOP            : No\nFormat settings, QPel            : No\nFormat settings, GMC             : No warppoints\nFormat settings, Matrix          : Default (H.263)\nCodec ID                         : XVID\nCodec ID/Hint                    : XviD\nDuration                         : 1h 41mn\nBit rate                         : 1 747 Kbps\nWidth                            : 704 pixels\nHeight                           : 396 pixels\nDisplay aspect ratio             : 16:9\nFrame rate                       : 25.000 fps\nColor space                      : YUV\nChroma subsampling               : 4:2:0\nBit depth                        : 8 bits\nScan type                        : Progressive\nBits/(Pixel*Frame)               : 0.251\nStream size                      : 1.23 GiB (79%)\nWriting library                  : XviD 1.1.2 (UTC 2006-11-01)\n\nAudio:\n\nFormat                           : AC-3\nFormat/Info                      : Audio Coding 3\nMode extension                   : CM (complete main)\nCodec ID                         : 2000\nDuration                         : 1h 41mn\nBit rate mode                    : Constant\nBit rate                         : 448 Kbps\nChannel(s)                       : 6 channels\nChannel positions                : Front: L C R, Side: L R, LFE\nSampling rate                    : 48.0 KHz\nBit depth                        : 16 bits\nStream size                      : 324 MiB (20%)\nAlignment                        : Aligned on interleaves\nInterleave, duration             : 32 ms (0.80 video frame)\n","torrent":{"xt":"urn:btih:ae31cd572a37063aedd97499d8cf6359e622561b","amp;dn":"Layer+Cake+2004+DVDrip+English+Klam","amp;tr":["udp%3A%2F%2Ftracker.openbittorrent.com%3A80","udp%3A%2F%2Fopen.demonii.com%3A1337","udp%3A%2F%2Ftracker.coppersurfer.tk%3A6969","udp%3A%2F%2Fexodus.desync.com%3A6969"],"infoHash":"ae31cd572a37063aedd97499d8cf6359e622561b","infoHashBuffer":{"type":"Buffer","data":[174,49,205,87,42,55,6,58,237,217,116,153,216,207,99,89,230,34,86,27]},"announce":[],"urlList":[]}}